<svg width="92" height="19" viewBox="0 0 92 19" fill="none" xmlns="http://www.w3.org/2000/svg">
<path d="M1.225 0.499999V18H0.475V0.499999H1.225ZM11.5 0.499999L3.1 8.85L12.3 18H11.225L2.025 8.85L10.425 0.499999H11.5ZM16.0311 17.25H24.1811L19.0561 5.175L13.6061 18H12.8061L19.0561 3.25L25.3061 18H16.0311V17.25ZM28.1582 3.5H28.9082V18H28.1582V3.5ZM36.0014 17.25H45.6514V4.55L40.0264 10.175L34.4014 4.55V18L33.6514 17.975V3.5H34.4014L40.0264 9.125L45.6514 3.5H46.4014V18L36.0014 17.975V17.25ZM58.4563 4.275C57.8896 4.09167 57.1896 4 56.3563 4C55.5229 4 54.8229 4.09167 54.2563 4.275C53.6896 4.44167 53.1646 4.76667 52.6813 5.25C52.2146 5.71667 51.8646 6.40833 51.6313 7.325C51.3979 8.225 51.2813 9.36667 51.2813 10.75C51.2813 12.1333 51.3979 13.2833 51.6313 14.2C51.8646 15.1 52.2146 15.7917 52.6813 16.275C53.1646 16.7417 53.6896 17.0667 54.2563 17.25C54.8229 17.4167 55.5229 17.5 56.3563 17.5C57.1896 17.5 57.8896 17.4167 58.4563 17.25C59.0229 17.0667 59.5396 16.7417 60.0063 16.275C60.4896 15.7917 60.8479 15.1 61.0813 14.2C61.3146 13.2833 61.4313 12.1333 61.4313 10.75C61.4313 9.36667 61.3146 8.225 61.0813 7.325C60.8479 6.40833 60.4896 5.71667 60.0063 5.25C59.5396 4.76667 59.0229 4.44167 58.4563 4.275ZM60.8313 16.475C59.9313 17.6583 58.4396 18.25 56.3563 18.25C54.2729 18.25 52.7813 17.6583 51.8813 16.475C50.9813 15.2917 50.5313 13.3833 50.5313 10.75C50.5313 8.11667 50.9813 6.20833 51.8813 5.025C52.7813 3.84167 54.2729 3.25 56.3563 3.25C58.4396 3.25 59.9313 3.84167 60.8313 5.025C61.7313 6.20833 62.1813 8.11667 62.1813 10.75C62.1813 13.3833 61.7313 15.2917 60.8313 16.475ZM66.3174 18V3.5H67.0674L75.2174 16.625V3.5H75.9674V18H75.2174L67.0674 4.85V18H66.3174ZM88.0217 4.275C87.455 4.09167 86.755 4 85.9217 4C85.0883 4 84.3883 4.09167 83.8217 4.275C83.255 4.44167 82.73 4.76667 82.2467 5.25C81.78 5.71667 81.43 6.40833 81.1967 7.325C80.9633 8.225 80.8467 9.36667 80.8467 10.75C80.8467 12.1333 80.9633 13.2833 81.1967 14.2C81.43 15.1 81.78 15.7917 82.2467 16.275C82.73 16.7417 83.255 17.0667 83.8217 17.25C84.3883 17.4167 85.0883 17.5 85.9217 17.5C86.755 17.5 87.455 17.4167 88.0217 17.25C88.5883 17.0667 89.105 16.7417 89.5717 16.275C90.055 15.7917 90.4133 15.1 90.6467 14.2C90.88 13.2833 90.9967 12.1333 90.9967 10.75C90.9967 9.36667 90.88 8.225 90.6467 7.325C90.4133 6.40833 90.055 5.71667 89.5717 5.25C89.105 4.76667 88.5883 4.44167 88.0217 4.275ZM90.3967 16.475C89.4967 17.6583 88.005 18.25 85.9217 18.25C83.8383 18.25 82.3467 17.6583 81.4467 16.475C80.5467 15.2917 80.0967 13.3833 80.0967 10.75C80.0967 8.11667 80.5467 6.20833 81.4467 5.025C82.3467 3.84167 83.8383 3.25 85.9217 3.25C88.005 3.25 89.4967 3.84167 90.3967 5.025C91.2967 6.20833 91.7467 8.11667 91.7467 10.75C91.7467 13.3833 91.2967 15.2917 90.3967 16.475Z" fill="black"/>
</svg>
